{
    "asset" : {
        "generator" : "Khronos glTF Blender I/O v3.2.40",
        "version" : "2.0"
    },
    "scene" : 0,
    "scenes" : [
        {
            "name" : "Scene",
            "nodes" : [
                0,
                1,
                2
            ]
        }
    ],
    "nodes" : [
        {
            "mesh" : 0,
            "name" : "Firewood"
        },
        {
            "mesh" : 1,
            "name" : "Fireground2"
        },
        {
            "mesh" : 2,
            "name" : "Fireground1"
        }
    ],
    "animations" : [
        {
            "channels" : [
                {
                    "sampler" : 0,
                    "target" : {
                        "node" : 0,
                        "path" : "translation"
                    }
                },
                {
                    "sampler" : 1,
                    "target" : {
                        "node" : 0,
                        "path" : "rotation"
                    }
                },
                {
                    "sampler" : 2,
                    "target" : {
                        "node" : 0,
                        "path" : "scale"
                    }
                }
            ],
            "name" : "Firewood",
            "samplers" : [
                {
                    "input" : 15,
                    "interpolation" : "LINEAR",
                    "output" : 16
                },
                {
                    "input" : 15,
                    "interpolation" : "LINEAR",
                    "output" : 17
                },
                {
                    "input" : 15,
                    "interpolation" : "LINEAR",
                    "output" : 18
                }
            ]
        },
        {
            "channels" : [
                {
                    "sampler" : 0,
                    "target" : {
                        "node" : 1,
                        "path" : "translation"
                    }
                },
                {
                    "sampler" : 1,
                    "target" : {
                        "node" : 1,
                        "path" : "rotation"
                    }
                },
                {
                    "sampler" : 2,
                    "target" : {
                        "node" : 1,
                        "path" : "scale"
                    }
                }
            ],
            "name" : "Fireground2",
            "samplers" : [
                {
                    "input" : 15,
                    "interpolation" : "LINEAR",
                    "output" : 19
                },
                {
                    "input" : 15,
                    "interpolation" : "LINEAR",
                    "output" : 20
                },
                {
                    "input" : 15,
                    "interpolation" : "LINEAR",
                    "output" : 21
                }
            ]
        },
        {
            "channels" : [
                {
                    "sampler" : 0,
                    "target" : {
                        "node" : 2,
                        "path" : "translation"
                    }
                },
                {
                    "sampler" : 1,
                    "target" : {
                        "node" : 2,
                        "path" : "rotation"
                    }
                },
                {
                    "sampler" : 2,
                    "target" : {
                        "node" : 2,
                        "path" : "scale"
                    }
                }
            ],
            "name" : "Fireground1",
            "samplers" : [
                {
                    "input" : 15,
                    "interpolation" : "LINEAR",
                    "output" : 22
                },
                {
                    "input" : 15,
                    "interpolation" : "LINEAR",
                    "output" : 23
                },
                {
                    "input" : 15,
                    "interpolation" : "LINEAR",
                    "output" : 24
                }
            ]
        }
    ],
    "materials" : [
        {
            "alphaMode" : "BLEND",
            "name" : "FirewoodBurning",
            "normalTexture" : {
                "index" : 0
            },
            "pbrMetallicRoughness" : {
                "baseColorTexture" : {
                    "index" : 1
                },
                "metallicFactor" : 0,
                "roughnessFactor" : 0.5
            }
        },
        {
            "doubleSided" : true,
            "name" : "Fireground",
            "normalTexture" : {
                "index" : 2
            },
            "pbrMetallicRoughness" : {
                "baseColorTexture" : {
                    "index" : 3
                },
                "metallicFactor" : 0
            }
        }
    ],
    "meshes" : [
        {
            "name" : "FirewoodOuter",
            "primitives" : [
                {
                    "attributes" : {
                        "POSITION" : 0,
                        "NORMAL" : 1,
                        "TEXCOORD_0" : 2,
                        "TEXCOORD_1" : 3
                    },
                    "indices" : 4,
                    "material" : 0
                }
            ]
        },
        {
            "name" : "FirewoodOuter.002",
            "primitives" : [
                {
                    "attributes" : {
                        "POSITION" : 5,
                        "NORMAL" : 6,
                        "TEXCOORD_0" : 7,
                        "TEXCOORD_1" : 8
                    },
                    "indices" : 9,
                    "material" : 1
                }
            ]
        },
        {
            "name" : "FirewoodOuter.001",
            "primitives" : [
                {
                    "attributes" : {
                        "POSITION" : 10,
                        "NORMAL" : 11,
                        "TEXCOORD_0" : 12,
                        "TEXCOORD_1" : 13
                    },
                    "indices" : 14,
                    "material" : 1
                }
            ]
        }
    ],
    "textures" : [
        {
            "sampler" : 0,
            "source" : 0
        },
        {
            "sampler" : 0,
            "source" : 1
        },
        {
            "sampler" : 0,
            "source" : 2
        },
        {
            "sampler" : 0,
            "source" : 3
        }
    ],
    "images" : [
        {
            "mimeType" : "image/jpeg",
            "name" : "FirewoodBurning2_NRM",
            "uri" : "FirewoodBurning2_NRM.jpg"
        },
        {
            "mimeType" : "image/jpeg",
            "name" : "FirewoodBurning2_DIF",
            "uri" : "FirewoodBurning2_DIF.jpg"
        },
        {
            "mimeType" : "image/jpeg",
            "name" : "Fireground_NRM",
            "uri" : "Fireground_NRM.jpg"
        },
        {
            "mimeType" : "image/png",
            "name" : "Fireground_DIF",
            "uri" : "Fireground_DIF.png"
        }
    ],
    "accessors" : [
        {
            "bufferView" : 0,
            "componentType" : 5126,
            "count" : 1553,
            "max" : [
                0.2519204616546631,
                0.17084623873233795,
                0.22838418185710907
            ],
            "min" : [
                -0.26591452956199646,
                -0.021120775490999222,
                -0.2434266209602356
            ],
            "type" : "VEC3"
        },
        {
            "bufferView" : 1,
            "componentType" : 5126,
            "count" : 1553,
            "type" : "VEC3"
        },
        {
            "bufferView" : 2,
            "componentType" : 5126,
            "count" : 1553,
            "type" : "VEC2"
        },
        {
            "bufferView" : 3,
            "componentType" : 5126,
            "count" : 1553,
            "type" : "VEC2"
        },
        {
            "bufferView" : 4,
            "componentType" : 5123,
            "count" : 3084,
            "type" : "SCALAR"
        },
        {
            "bufferView" : 5,
            "componentType" : 5126,
            "count" : 16,
            "max" : [
                0.10899433493614197,
                -7.813544652890414e-05,
                0.10845598578453064
            ],
            "min" : [
                -0.10833403468132019,
                -7.813544652890414e-05,
                -0.10887238383293152
            ],
            "type" : "VEC3"
        },
        {
            "bufferView" : 6,
            "componentType" : 5126,
            "count" : 16,
            "type" : "VEC3"
        },
        {
            "bufferView" : 7,
            "componentType" : 5126,
            "count" : 16,
            "type" : "VEC2"
        },
        {
            "bufferView" : 8,
            "componentType" : 5126,
            "count" : 16,
            "type" : "VEC2"
        },
        {
            "bufferView" : 9,
            "componentType" : 5123,
            "count" : 42,
            "type" : "SCALAR"
        },
        {
            "bufferView" : 10,
            "componentType" : 5126,
            "count" : 80,
            "max" : [
                0.42143410444259644,
                -7.813544652890414e-05,
                0.4205684959888458
            ],
            "min" : [
                -0.4203723669052124,
                -0.00012563541531562805,
                -0.421237975358963
            ],
            "type" : "VEC3"
        },
        {
            "bufferView" : 11,
            "componentType" : 5126,
            "count" : 80,
            "type" : "VEC3"
        },
        {
            "bufferView" : 12,
            "componentType" : 5126,
            "count" : 80,
            "type" : "VEC2"
        },
        {
            "bufferView" : 13,
            "componentType" : 5126,
            "count" : 80,
            "type" : "VEC2"
        },
        {
            "bufferView" : 14,
            "componentType" : 5123,
            "count" : 384,
            "type" : "SCALAR"
        },
        {
            "bufferView" : 15,
            "componentType" : 5126,
            "count" : 3,
            "max" : [
                0.16666666666666666
            ],
            "min" : [
                0.08333333333333333
            ],
            "type" : "SCALAR"
        },
        {
            "bufferView" : 16,
            "componentType" : 5126,
            "count" : 3,
            "type" : "VEC3"
        },
        {
            "bufferView" : 17,
            "componentType" : 5126,
            "count" : 3,
            "type" : "VEC4"
        },
        {
            "bufferView" : 18,
            "componentType" : 5126,
            "count" : 3,
            "type" : "VEC3"
        },
        {
            "bufferView" : 19,
            "componentType" : 5126,
            "count" : 3,
            "type" : "VEC3"
        },
        {
            "bufferView" : 20,
            "componentType" : 5126,
            "count" : 3,
            "type" : "VEC4"
        },
        {
            "bufferView" : 21,
            "componentType" : 5126,
            "count" : 3,
            "type" : "VEC3"
        },
        {
            "bufferView" : 22,
            "componentType" : 5126,
            "count" : 3,
            "type" : "VEC3"
        },
        {
            "bufferView" : 23,
            "componentType" : 5126,
            "count" : 3,
            "type" : "VEC4"
        },
        {
            "bufferView" : 24,
            "componentType" : 5126,
            "count" : 3,
            "type" : "VEC3"
        }
    ],
    "bufferViews" : [
        {
            "buffer" : 0,
            "byteLength" : 18636,
            "byteOffset" : 0
        },
        {
            "buffer" : 0,
            "byteLength" : 18636,
            "byteOffset" : 18636
        },
        {
            "buffer" : 0,
            "byteLength" : 12424,
            "byteOffset" : 37272
        },
        {
            "buffer" : 0,
            "byteLength" : 12424,
            "byteOffset" : 49696
        },
        {
            "buffer" : 0,
            "byteLength" : 6168,
            "byteOffset" : 62120
        },
        {
            "buffer" : 0,
            "byteLength" : 192,
            "byteOffset" : 68288
        },
        {
            "buffer" : 0,
            "byteLength" : 192,
            "byteOffset" : 68480
        },
        {
            "buffer" : 0,
            "byteLength" : 128,
            "byteOffset" : 68672
        },
        {
            "buffer" : 0,
            "byteLength" : 128,
            "byteOffset" : 68800
        },
        {
            "buffer" : 0,
            "byteLength" : 84,
            "byteOffset" : 68928
        },
        {
            "buffer" : 0,
            "byteLength" : 960,
            "byteOffset" : 69012
        },
        {
            "buffer" : 0,
            "byteLength" : 960,
            "byteOffset" : 69972
        },
        {
            "buffer" : 0,
            "byteLength" : 640,
            "byteOffset" : 70932
        },
        {
            "buffer" : 0,
            "byteLength" : 640,
            "byteOffset" : 71572
        },
        {
            "buffer" : 0,
            "byteLength" : 768,
            "byteOffset" : 72212
        },
        {
            "buffer" : 0,
            "byteLength" : 12,
            "byteOffset" : 72980
        },
        {
            "buffer" : 0,
            "byteLength" : 36,
            "byteOffset" : 72992
        },
        {
            "buffer" : 0,
            "byteLength" : 48,
            "byteOffset" : 73028
        },
        {
            "buffer" : 0,
            "byteLength" : 36,
            "byteOffset" : 73076
        },
        {
            "buffer" : 0,
            "byteLength" : 36,
            "byteOffset" : 73112
        },
        {
            "buffer" : 0,
            "byteLength" : 48,
            "byteOffset" : 73148
        },
        {
            "buffer" : 0,
            "byteLength" : 36,
            "byteOffset" : 73196
        },
        {
            "buffer" : 0,
            "byteLength" : 36,
            "byteOffset" : 73232
        },
        {
            "buffer" : 0,
            "byteLength" : 48,
            "byteOffset" : 73268
        },
        {
            "buffer" : 0,
            "byteLength" : 36,
            "byteOffset" : 73316
        }
    ],
    "samplers" : [
        {
            "magFilter" : 9729,
            "minFilter" : 9987
        }
    ],
    "buffers" : [
        {
            "byteLength" : 73352,
            "uri" : "Firewood1.bin"
        }
    ]
}
