{
    "asset" : {
        "generator" : "Khronos glTF Blender I/O v1.3.48",
        "version" : "2.0"
    },
    "scene" : 0,
    "scenes" : [
        {
            "name" : "Scene",
            "nodes" : [
                0,
                1,
                2,
                3
            ]
        }
    ],
    "nodes" : [
        {
            "mesh" : 0,
            "name" : "Cube"
        },
        {
            "name" : "Light",
            "rotation" : [
                0.3735714256763458,
                0.8799974322319031,
                0.12771669030189514,
                0.2640783190727234
            ],
            "translation" : [
                0.05822110176086426,
                1.269272804260254,
                1.6514930725097656
            ]
        },
        {
            "mesh" : 1,
            "name" : "Suzanne"
        },
        {
            "mesh" : 2,
            "name" : "Plane"
        }
    ],
    "materials" : [
        {
            "doubleSided" : true,
            "emissiveFactor" : [
                0,
                0,
                0
            ],
            "name" : "Marble-BoxPlane",
            "normalTexture" : {
                "index" : 0,
                "texCoord" : 0
            },
            "occlusionTexture" : {
                "index" : 1,
                "texCoord" : 1
            },
            "pbrMetallicRoughness" : {
                "baseColorTexture" : {
                    "index" : 2,
                    "texCoord" : 0
                },
                "metallicFactor" : 0,
                "roughnessFactor" : 1
            }
        },
        {
            "doubleSided" : true,
            "emissiveFactor" : [
                0,
                0,
                0
            ],
            "name" : "Marble-Suzanne",
            "normalTexture" : {
                "index" : 3,
                "texCoord" : 0
            },
            "occlusionTexture" : {
                "index" : 4,
                "texCoord" : 1
            },
            "pbrMetallicRoughness" : {
                "baseColorTexture" : {
                    "index" : 5,
                    "texCoord" : 0
                },
                "metallicFactor" : 0,
                "roughnessFactor" : 1
            }
        }
    ],
    "meshes" : [
        {
            "name" : "Mesh.Cube",
            "primitives" : [
                {
                    "attributes" : {
                        "POSITION" : 0,
                        "NORMAL" : 1,
                        "TEXCOORD_0" : 2,
                        "TEXCOORD_1" : 3
                    },
                    "indices" : 4,
                    "material" : 0
                }
            ]
        },
        {
            "name" : "Mesh.Suzanne",
            "primitives" : [
                {
                    "attributes" : {
                        "POSITION" : 5,
                        "NORMAL" : 6,
                        "TEXCOORD_0" : 7,
                        "TEXCOORD_1" : 8
                    },
                    "indices" : 9,
                    "material" : 1
                }
            ]
        },
        {
            "name" : "Mesh.Plane",
            "primitives" : [
                {
                    "attributes" : {
                        "POSITION" : 10,
                        "NORMAL" : 11,
                        "TEXCOORD_0" : 12,
                        "TEXCOORD_1" : 13
                    },
                    "indices" : 14,
                    "material" : 0
                }
            ]
        }
    ],
    "textures" : [
        {
            "source" : 0
        },
        {
            "source" : 1
        },
        {
            "source" : 2
        },
        {
            "source" : 0
        },
        {
            "source" : 3
        },
        {
            "source" : 2
        }
    ],
    "images" : [
        {
            "mimeType" : "image/jpeg",
            "name" : "Marbel_2K_Normal",
            "uri" : "Marbel_2K_Normal.jpg"
        },
        {
            "mimeType" : "image/jpeg",
            "name" : "BoxPlane_AO",
            "uri" : "BoxPlane_AO.jpg"
        },
        {
            "mimeType" : "image/jpeg",
            "name" : "Marbel_2K_Albedo",
            "uri" : "Marbel_2K_Albedo.jpg"
        },
        {
            "mimeType" : "image/jpeg",
            "name" : "Szanne-AO",
            "uri" : "Szanne-AO.jpg"
        }
    ],
    "accessors" : [
        {
            "bufferView" : 0,
            "componentType" : 5126,
            "count" : 120,
            "max" : [
                0.5003831386566162,
                1.0000427961349487,
                0.4795723557472229
            ],
            "min" : [
                -0.49961578845977783,
                4.393399285618216e-05,
                -0.5204265713691711
            ],
            "type" : "VEC3"
        },
        {
            "bufferView" : 1,
            "componentType" : 5126,
            "count" : 120,
            "type" : "VEC3"
        },
        {
            "bufferView" : 2,
            "componentType" : 5126,
            "count" : 120,
            "type" : "VEC2"
        },
        {
            "bufferView" : 3,
            "componentType" : 5126,
            "count" : 120,
            "type" : "VEC2"
        },
        {
            "bufferView" : 4,
            "componentType" : 5123,
            "count" : 174,
            "type" : "SCALAR"
        },
        {
            "bufferView" : 5,
            "componentType" : 5126,
            "count" : 7872,
            "max" : [
                0.3991447687149048,
                0.5427663922309875,
                0.30779707431793213
            ],
            "min" : [
                -0.3991447687149048,
                0.09116863459348679,
                -0.2946281135082245
            ],
            "type" : "VEC3"
        },
        {
            "bufferView" : 6,
            "componentType" : 5126,
            "count" : 7872,
            "type" : "VEC3"
        },
        {
            "bufferView" : 7,
            "componentType" : 5126,
            "count" : 7872,
            "type" : "VEC2"
        },
        {
            "bufferView" : 8,
            "componentType" : 5126,
            "count" : 7872,
            "type" : "VEC2"
        },
        {
            "bufferView" : 9,
            "componentType" : 5123,
            "count" : 11808,
            "type" : "SCALAR"
        },
        {
            "bufferView" : 10,
            "componentType" : 5126,
            "count" : 4,
            "max" : [
                2.284842014312744,
                0,
                2.284842014312744
            ],
            "min" : [
                -2.284842014312744,
                0,
                -2.284842014312744
            ],
            "type" : "VEC3"
        },
        {
            "bufferView" : 11,
            "componentType" : 5126,
            "count" : 4,
            "type" : "VEC3"
        },
        {
            "bufferView" : 12,
            "componentType" : 5126,
            "count" : 4,
            "type" : "VEC2"
        },
        {
            "bufferView" : 13,
            "componentType" : 5126,
            "count" : 4,
            "type" : "VEC2"
        },
        {
            "bufferView" : 14,
            "componentType" : 5123,
            "count" : 6,
            "type" : "SCALAR"
        }
    ],
    "bufferViews" : [
        {
            "buffer" : 0,
            "byteLength" : 1440,
            "byteOffset" : 0
        },
        {
            "buffer" : 0,
            "byteLength" : 1440,
            "byteOffset" : 1440
        },
        {
            "buffer" : 0,
            "byteLength" : 960,
            "byteOffset" : 2880
        },
        {
            "buffer" : 0,
            "byteLength" : 960,
            "byteOffset" : 3840
        },
        {
            "buffer" : 0,
            "byteLength" : 348,
            "byteOffset" : 4800
        },
        {
            "buffer" : 0,
            "byteLength" : 94464,
            "byteOffset" : 5148
        },
        {
            "buffer" : 0,
            "byteLength" : 94464,
            "byteOffset" : 99612
        },
        {
            "buffer" : 0,
            "byteLength" : 62976,
            "byteOffset" : 194076
        },
        {
            "buffer" : 0,
            "byteLength" : 62976,
            "byteOffset" : 257052
        },
        {
            "buffer" : 0,
            "byteLength" : 23616,
            "byteOffset" : 320028
        },
        {
            "buffer" : 0,
            "byteLength" : 48,
            "byteOffset" : 343644
        },
        {
            "buffer" : 0,
            "byteLength" : 48,
            "byteOffset" : 343692
        },
        {
            "buffer" : 0,
            "byteLength" : 32,
            "byteOffset" : 343740
        },
        {
            "buffer" : 0,
            "byteLength" : 32,
            "byteOffset" : 343772
        },
        {
            "buffer" : 0,
            "byteLength" : 12,
            "byteOffset" : 343804
        }
    ],
    "buffers" : [
        {
            "byteLength" : 343816,
            "uri" : "AO-Baked-Test.bin"
        }
    ]
}
