{
    "asset" : {
        "generator" : "Khronos glTF Blender I/O v3.2.40",
        "version" : "2.0"
    },
    "scene" : 0,
    "scenes" : [
        {
            "name" : "Scene",
            "nodes" : [
                0
            ]
        }
    ],
    "nodes" : [
        {
            "mesh" : 0,
            "name" : "Torch"
        }
    ],
    "materials" : [
        {
            "doubleSided" : true,
            "name" : "Torch",
            "normalTexture" : {
                "index" : 0
            },
            "pbrMetallicRoughness" : {
                "baseColorTexture" : {
                    "index" : 1
                },
                "metallicRoughnessTexture" : {
                    "index" : 2
                }
            }
        }
    ],
    "meshes" : [
        {
            "name" : "Torch",
            "primitives" : [
                {
                    "attributes" : {
                        "POSITION" : 0,
                        "NORMAL" : 1,
                        "TEXCOORD_0" : 2
                    },
                    "indices" : 3,
                    "material" : 0
                }
            ]
        }
    ],
    "textures" : [
        {
            "sampler" : 0,
            "source" : 0
        },
        {
            "sampler" : 0,
            "source" : 1
        },
        {
            "sampler" : 0,
            "source" : 2
        }
    ],
    "images" : [
        {
            "mimeType" : "image/jpeg",
            "name" : "Torch_1K_NRM",
            "uri" : "Torch_1K_NRM.jpg"
        },
        {
            "mimeType" : "image/jpeg",
            "name" : "Torch_1K_DIF",
            "uri" : "Torch_1K_DIF.jpg"
        },
        {
            "mimeType" : "image/jpeg",
            "name" : "Torch_1K_MTL-Torch_1K_SPC",
            "uri" : "Torch_1K_MTL-Torch_1K_SPC.jpg"
        }
    ],
    "accessors" : [
        {
            "bufferView" : 0,
            "componentType" : 5126,
            "count" : 2770,
            "max" : [
                0.0715700313448906,
                0.24755938351154327,
                0.27344703674316406
            ],
            "min" : [
                -0.07085693627595901,
                -0.2495090216398239,
                -4.673372313845903e-05
            ],
            "type" : "VEC3"
        },
        {
            "bufferView" : 1,
            "componentType" : 5126,
            "count" : 2770,
            "type" : "VEC3"
        },
        {
            "bufferView" : 2,
            "componentType" : 5126,
            "count" : 2770,
            "type" : "VEC2"
        },
        {
            "bufferView" : 3,
            "componentType" : 5123,
            "count" : 4092,
            "type" : "SCALAR"
        }
    ],
    "bufferViews" : [
        {
            "buffer" : 0,
            "byteLength" : 33240,
            "byteOffset" : 0
        },
        {
            "buffer" : 0,
            "byteLength" : 33240,
            "byteOffset" : 33240
        },
        {
            "buffer" : 0,
            "byteLength" : 22160,
            "byteOffset" : 66480
        },
        {
            "buffer" : 0,
            "byteLength" : 8184,
            "byteOffset" : 88640
        }
    ],
    "samplers" : [
        {
            "magFilter" : 9729,
            "minFilter" : 9987
        }
    ],
    "buffers" : [
        {
            "byteLength" : 96824,
            "uri" : "Torch.bin"
        }
    ]
}
